<svg width="44" height="44" viewBox="0 0 44 44" fill="none" xmlns="http://www.w3.org/2000/svg">
<path d="M21.8376 31.1322C22.788 31.1322 23.6994 30.7547 24.3714 30.0826C25.0434 29.4106 25.421 28.4992 25.421 27.5488C25.421 26.5985 25.0434 25.6871 24.3714 25.015C23.6994 24.343 22.788 23.9655 21.8376 23.9655C20.8873 23.9655 19.9758 24.343 19.3038 25.015C18.6318 25.6871 18.2543 26.5985 18.2543 27.5488C18.2543 28.4992 18.6318 29.4106 19.3038 30.0826C19.9758 30.7547 20.8873 31.1322 21.8376 31.1322ZM32.5876 15.0072C33.538 15.0072 34.4494 15.3847 35.1214 16.0567C35.7934 16.7287 36.1709 17.6402 36.1709 18.5905V36.5072C36.1709 37.4575 35.7934 38.369 35.1214 39.041C34.4494 39.713 33.538 40.0905 32.5876 40.0905H11.0876C10.1373 40.0905 9.22583 39.713 8.55382 39.041C7.88182 38.369 7.50429 37.4575 7.50429 36.5072V18.5905C7.50429 17.6402 7.88182 16.7287 8.55382 16.0567C9.22583 15.3847 10.1373 15.0072 11.0876 15.0072H12.8793V11.4238C12.8793 9.04795 13.8231 6.76936 15.5031 5.08935C17.1831 3.40934 19.4617 2.46552 21.8376 2.46552C23.014 2.46552 24.1789 2.69723 25.2658 3.14743C26.3527 3.59763 27.3403 4.25749 28.1721 5.08935C29.004 5.92121 29.6638 6.90877 30.114 7.99564C30.5642 9.08252 30.7959 10.2474 30.7959 11.4238V15.0072H32.5876ZM21.8376 6.04885C20.4121 6.04885 19.0449 6.61514 18.0369 7.62315C17.0289 8.63116 16.4626 9.99831 16.4626 11.4238V15.0072H27.2126V11.4238C27.2126 9.99831 26.6463 8.63116 25.6383 7.62315C24.6303 6.61514 23.2632 6.04885 21.8376 6.04885Z" fill="#62A9DF"/>
</svg>
