<svg width="44" height="44" viewBox="0 0 44 44" fill="none" xmlns="http://www.w3.org/2000/svg">
<path d="M12.8861 21.1599C15.6996 26.6892 20.2324 31.2026 25.7618 34.0356L30.0602 29.7372C30.5877 29.2097 31.3692 29.0338 32.0531 29.2683C34.2413 29.9912 36.6055 30.382 39.0282 30.382C40.1028 30.382 40.982 31.2612 40.982 32.3358V39.1546C40.982 40.2292 40.1028 41.1084 39.0282 41.1084C20.6818 41.1084 5.81323 26.2398 5.81323 7.89346C5.81323 6.81886 6.69245 5.93964 7.76705 5.93964H14.6054C15.68 5.93964 16.5593 6.81886 16.5593 7.89346C16.5593 10.3357 16.95 12.6803 17.6729 14.8686C17.8879 15.5524 17.7315 16.3144 17.1845 16.8615L12.8861 21.1599Z" fill="#62A9DF"/>
</svg>
