<svg width="44" height="44" viewBox="0 0 44 44" fill="none" xmlns="http://www.w3.org/2000/svg">
<path d="M31.4949 33.0178L30.7334 32.2564C30.4647 31.9876 30.1439 31.8532 29.7713 31.8532C29.3986 31.8532 29.0773 31.9876 28.8074 32.2564C28.5386 32.5251 28.4042 32.8386 28.4042 33.197C28.4042 33.5553 28.5386 33.8689 28.8074 34.1376L30.5542 35.8845C30.823 36.1532 31.1365 36.2876 31.4949 36.2876C31.8532 36.2876 32.1667 36.1532 32.4355 35.8845L36.7803 31.6293C37.049 31.3605 37.1834 31.0392 37.1834 30.6654C37.1834 30.2915 37.049 29.9708 36.7803 29.7032C36.5115 29.4345 36.1902 29.3001 35.8164 29.3001C35.4425 29.3001 35.1218 29.4345 34.8542 29.7032L31.4949 33.0178ZM31.0022 16.6689C31.5098 16.6689 31.9356 16.4969 32.2796 16.1529C32.6236 15.8089 32.795 15.3836 32.7938 14.8772C32.7938 14.3696 32.6218 13.9437 32.2778 13.5997C31.9338 13.2557 31.5086 13.0843 31.0022 13.0855H13.0855C12.5778 13.0855 12.152 13.2575 11.808 13.6015C11.464 13.9455 11.2926 14.3707 11.2938 14.8772C11.2938 15.3848 11.4658 15.8106 11.8098 16.1546C12.1538 16.4986 12.579 16.67 13.0855 16.6689H31.0022ZM32.7938 41.7522C30.3153 41.7522 28.203 40.8784 26.4567 39.131C24.7104 37.3835 23.8367 35.2711 23.8355 32.7939C23.8355 30.3154 24.7092 28.2024 26.4567 26.4549C28.2042 24.7075 30.3165 23.8343 32.7938 23.8355C35.2723 23.8355 37.3853 24.7093 39.1327 26.4567C40.8802 28.2042 41.7533 30.3166 41.7522 32.7939C41.7522 35.2723 40.8784 37.3853 39.1309 39.1328C37.3835 40.8802 35.2711 41.7534 32.7938 41.7522ZM9.50216 5.91886H34.5855C35.5709 5.91886 36.4148 6.27002 37.1171 6.97236C37.8194 7.67469 38.17 8.51797 38.1688 9.50219V21.4616C37.3327 21.0435 36.459 20.7371 35.5476 20.5424C34.6362 20.3477 33.7183 20.251 32.7938 20.2522H13.0855C12.5778 20.2522 12.152 20.4242 11.808 20.7682C11.464 21.1122 11.2926 21.5374 11.2938 22.0439C11.2938 22.5515 11.4658 22.9773 11.8098 23.3213C12.1538 23.6653 12.579 23.8367 13.0855 23.8355H24.0147C23.507 24.3432 23.037 24.8956 22.6046 25.4928C22.1722 26.09 21.7912 26.732 21.4615 27.4189H13.0855C12.5778 27.4189 12.152 27.5909 11.808 27.9349C11.464 28.2789 11.2926 28.7041 11.2938 29.2105C11.2938 29.7182 11.4658 30.144 11.8098 30.488C12.1538 30.832 12.579 31.0034 13.0855 31.0022H20.3865C20.3268 31.3008 20.2892 31.5922 20.2737 31.8765C20.2581 32.1608 20.251 32.4666 20.2522 32.7939C20.2522 34.048 20.4242 35.2502 20.7682 36.4005C21.1122 37.5507 21.627 38.6478 22.3126 39.6918C22.1633 39.7216 22.0062 39.6989 21.8414 39.6237C21.6765 39.5484 21.535 39.4517 21.4167 39.3334L19.9834 37.9001C19.8042 37.7209 19.5952 37.6314 19.3563 37.6314C19.1174 37.6314 18.9084 37.7209 18.7292 37.9001L17.2959 39.3334C17.1167 39.5126 16.9077 39.6022 16.6688 39.6022C16.4299 39.6022 16.2209 39.5126 16.0417 39.3334L14.6084 37.9001C14.4292 37.7209 14.2202 37.6314 13.9813 37.6314C13.7424 37.6314 13.5334 37.7209 13.3542 37.9001L11.9209 39.3334C11.7417 39.5126 11.5327 39.6022 11.2938 39.6022C11.0549 39.6022 10.8459 39.5126 10.6667 39.3334L9.23341 37.9001C9.05424 37.7209 8.84521 37.6314 8.60632 37.6314C8.36743 37.6314 8.15841 37.7209 7.97924 37.9001L6.54591 39.3334L5.91882 39.7366V9.50219C5.91882 8.51677 6.26999 7.6729 6.97232 6.97056C7.67466 6.26823 8.51793 5.91766 9.50216 5.91886Z" fill="#62A9DF"/>
</svg>
