<svg width="44" height="44" viewBox="0 0 44 44" fill="none" xmlns="http://www.w3.org/2000/svg">
<path d="M22.044 7.71057C23.9447 7.71057 25.7676 8.46563 27.1116 9.80964C28.4556 11.1536 29.2107 12.9765 29.2107 14.8772C29.2107 16.778 28.4556 18.6008 27.1116 19.9448C25.7676 21.2888 23.9447 22.0439 22.044 22.0439C20.1433 22.0439 18.3204 21.2888 16.9764 19.9448C15.6324 18.6008 14.8774 16.778 14.8774 14.8772C14.8774 12.9765 15.6324 11.1536 16.9764 9.80964C18.3204 8.46563 20.1433 7.71057 22.044 7.71057ZM22.044 25.6272C29.9632 25.6272 36.3774 28.8343 36.3774 32.7939V36.3772H7.71069V32.7939C7.71069 28.8343 14.1249 25.6272 22.044 25.6272Z" fill="#62A9DF"/>
</svg>
