<svg width="44" height="43" viewBox="0 0 44 43" fill="none" xmlns="http://www.w3.org/2000/svg">
<path d="M41.3939 31.1739V11.8239C41.3939 10.0394 39.9534 8.59894 38.1689 8.59894H8.04739C6.26289 8.59894 4.82239 10.0394 4.82239 11.8239V31.1739C4.82239 32.9584 6.26289 34.3989 8.04739 34.3989H38.1689C39.9534 34.3989 41.3939 32.9584 41.3939 31.1739ZM38.5774 11.5874C39.2869 12.2969 38.8999 13.0279 38.5129 13.3934L29.7839 21.3914L38.1689 30.1204C38.4269 30.4214 38.5989 30.8944 38.2979 31.2169C38.0184 31.5609 37.3734 31.5394 37.0939 31.3244L27.6984 23.3049L23.0974 27.4974L18.5179 23.3049L9.12239 31.3244C8.84289 31.5394 8.19789 31.5609 7.91839 31.2169C7.61739 30.8944 7.78939 30.4214 8.04739 30.1204L16.4324 21.3914L7.70339 13.3934C7.31639 13.0279 6.92939 12.2969 7.63889 11.5874C8.34839 10.8779 9.07939 11.2219 9.68139 11.7379L23.0974 22.5739L36.5349 11.7379C37.1369 11.2219 37.8679 10.8779 38.5774 11.5874Z" fill="#62A9DF"/>
</svg>
